<svg fill="#ffffff" viewBox="0 0 24 24" xmlns="http://www.w3.org/2000/svg"><path d="M12 24c6.627 0 12-5.373 12-12S18.627 0 12 0 0 5.373 0 12s5.373 12 12 12zM12 3.75a2.25 2.25 0 012.25 2.25v4.5A2.25 2.25 0 0112 12.75H9.75a2.25 2.25 0 01-2.25-2.25v-4.5a2.25 2.25 0 012.25-2.25H12zM9.75 3.75a2.25 2.25 0 00-2.25 2.25v4.5a2.25 2.25 0 002.25 2.25H12a2.25 2.25 0 100-4.5H9.75V6a2.25 2.25 0 012.25-2.25 2.25 2.25 0 000-4.5A2.25 2.25 0 009.75 3.75zm0 14.25a2.25 2.25 0 100 4.5 2.25 2.25 0 000-4.5zm4.5-2.25a2.25 2.25 0 012.25 2.25 2.25 2.25 0 11-4.5 0 2.25 2.25 0 012.25-2.25z"/></svg>